<svg width="162" height="48" viewBox="0 0 162 48" fill="none" xmlns="http://www.w3.org/2000/svg">
<g clip-path="url(#clip0_34_543)">
<path d="M63.7627 29.0513H58.6279V6.99658H67.1123C69.6832 6.99658 71.7101 7.58468 73.1978 8.76319C74.6854 9.9417 75.4293 11.5572 75.4293 13.6121C75.4293 15.8691 74.2391 17.5172 71.8612 18.5609C73.1861 18.9421 74.1508 19.572 74.7575 20.446C75.3642 21.32 75.6664 22.4497 75.6664 23.8305V25.2112C75.6664 25.9062 75.7617 26.6036 75.9523 27.2986C76.1429 27.9959 76.4358 28.4887 76.8286 28.7793V29.0815H71.5427C70.8919 28.5654 70.5665 27.2753 70.5665 25.2089V23.863C70.5665 22.8077 70.2898 22.0058 69.7343 21.4548C69.1787 20.9039 68.3629 20.6297 67.2843 20.6297L63.765 20.5948V29.0513H63.7627ZM63.7627 10.9691V16.6943H67.1309C68.1629 16.6943 68.9509 16.4619 69.4972 15.9946C70.0411 15.5298 70.3131 14.844 70.3131 13.9398C70.3131 13.0356 70.0318 12.315 69.4716 11.7757C68.9091 11.2364 68.1258 10.9668 67.1146 10.9668H63.7627V10.9691Z" fill="#090B0E"/>
<path d="M92.907 15.6996V19.6396H84.2529V25.144H94.4388V29.084H79.1182V7.0293H94.4714V10.9693H84.2529V15.6996H92.907Z" fill="#090B0E"/>
<path d="M115.18 7.02918V29.0838H110.078L101.995 15.0254L101.912 15.0579V29.0815H96.7769V7.02686H101.912L109.975 21.0853L110.075 21.0528V7.02918H115.18Z" fill="#090B0E"/>
<path d="M132.453 15.6996V19.6396H123.799V25.144H133.985V29.084H118.665V7.0293H134.018V10.9693H123.799V15.6996H132.453Z" fill="#090B0E"/>
<path d="M150.147 7.0293L154.071 21.4899H154.154L157.051 7.0293H162L156.948 29.084H152.116L148.413 15.4811H148.313L144.643 29.084H139.826L134.743 7.0293H139.71L142.606 21.4899H142.706L146.595 7.0293H150.147Z" fill="#090B0E"/>
<path d="M63.0305 41.5108L62.6493 40.2184H60.5549L60.1807 41.5108H58.6279L60.7734 34.8674H62.4331L64.5832 41.5108H63.0305ZM61.5916 36.6526L60.9013 39.0306H62.3122L61.6172 36.6526H61.5916Z" fill="#090B0E"/>
<path d="M68.9608 34.8767H70.5065V39.2281C70.5065 39.9789 70.2578 40.5647 69.7627 40.9854C69.2676 41.4062 68.6005 41.6177 67.7637 41.6177C66.9268 41.6177 66.2597 41.4062 65.7623 40.9854C65.2648 40.5647 65.0161 39.9789 65.0161 39.2281V34.8767H66.5619V39.2281C66.5619 39.6303 66.6665 39.9324 66.8734 40.13C67.0803 40.3299 67.3801 40.4299 67.7683 40.4299C68.5586 40.4299 68.9561 40.0301 68.9561 39.2281V34.8767H68.9608Z" fill="#090B0E"/>
<path d="M76.1572 34.8674V36.0552H74.4022V41.5131H72.8564V36.0552H71.1177V34.8674H76.1572Z" fill="#090B0E"/>
<path d="M82.1546 37.6008V38.798C82.1546 39.6231 81.8942 40.2996 81.3759 40.8272C80.8575 41.3549 80.1788 41.6175 79.3396 41.6175C78.5005 41.6175 77.8194 41.3549 77.2964 40.8272C76.7711 40.2996 76.5107 39.6231 76.5107 38.798V37.6008C76.5107 37.0592 76.6293 36.5757 76.8641 36.148C77.0988 35.7203 77.4312 35.3856 77.8636 35.1439C78.2936 34.9021 78.7864 34.7812 79.3373 34.7812C80.1718 34.7812 80.8505 35.0439 81.3736 35.5716C81.8942 36.0992 82.1546 36.7757 82.1546 37.6008ZM80.6181 38.798V37.5915C80.6181 37.1057 80.5042 36.7129 80.2787 36.4154C80.0532 36.1178 79.7371 35.9691 79.3303 35.9691C78.9236 35.9691 78.6097 36.1178 78.3843 36.413C78.1588 36.7082 78.0472 37.1011 78.0472 37.5915V38.798C78.0472 39.2907 78.1611 39.6882 78.3889 39.9858C78.6167 40.2833 78.9329 40.4321 79.3373 40.4321C79.7418 40.4321 80.0556 40.2833 80.281 39.9858C80.5065 39.6859 80.6181 39.2907 80.6181 38.798Z" fill="#090B0E"/>
<path d="M83.0516 34.8674H85.0763L86.5663 39.5187H86.5918L88.0981 34.8674H90.132V41.5108H88.5862V39.8627L88.7327 36.8293L88.7071 36.8246L87.1032 41.5108H86.0642L84.4765 36.8642L84.451 36.8688L84.5974 39.8604V41.5085H83.0493V34.8674H83.0516Z" fill="#090B0E"/>
<path d="M96.6707 37.6008V38.798C96.6707 39.6231 96.4103 40.2996 95.892 40.8272C95.3736 41.3549 94.6949 41.6175 93.8557 41.6175C93.0166 41.6175 92.3355 41.3549 91.8125 40.8272C91.2895 40.2996 91.0269 39.6231 91.0269 38.798V37.6008C91.0269 37.0592 91.1454 36.5757 91.3802 36.148C91.6149 35.7203 91.9473 35.3856 92.3797 35.1439C92.8097 34.9021 93.3025 34.7812 93.8534 34.7812C94.6879 34.7812 95.3667 35.0439 95.8897 35.5716C96.4103 36.0992 96.6707 36.7757 96.6707 37.6008ZM95.1342 38.798V37.5915C95.1342 37.1057 95.0203 36.7129 94.7948 36.4154C94.5694 36.1178 94.2532 35.9691 93.8465 35.9691C93.4397 35.9691 93.1259 36.1178 92.9004 36.413C92.6749 36.7082 92.5633 37.1011 92.5633 37.5915V38.798C92.5633 39.2907 92.6772 39.6882 92.905 39.9858C93.1328 40.2833 93.449 40.4321 93.8534 40.4321C94.2579 40.4321 94.5717 40.2833 94.7972 39.9858C95.0203 39.6859 95.1342 39.2907 95.1342 38.798Z" fill="#090B0E"/>
<path d="M102.203 34.8672V36.055H100.448V41.5129H98.8998V36.055H97.1611V34.8672H102.203Z" fill="#090B0E"/>
<path d="M104.476 34.8672V41.5105H102.935V34.8672H104.476Z" fill="#090B0E"/>
<path d="M106.708 34.8672L108.007 39.7068L108.054 39.9508H108.084L108.131 39.7277L109.449 34.8695H111.062L108.912 41.5129H107.243L105.097 34.8695H106.708V34.8672Z" fill="#090B0E"/>
<path d="M115.736 37.4777V38.6655H113.13V40.3252H116.198V41.513H111.582V34.8696H116.208V36.0574H113.13V37.4823H115.736V37.4777Z" fill="#090B0E"/>
<path d="M122.116 40.4508V40.4554C122.43 40.4554 122.667 40.395 122.825 40.2695C122.984 40.1463 123.063 39.9719 123.063 39.7488C123.063 39.5256 122.988 39.3513 122.842 39.2235C122.695 39.0956 122.414 38.9561 121.998 38.8051C121.098 38.5238 120.461 38.2309 120.085 37.9241C119.708 37.6172 119.522 37.1895 119.522 36.6363C119.522 36.0831 119.762 35.6345 120.238 35.2928C120.715 34.9487 121.328 34.7791 122.077 34.7791C122.825 34.7791 123.434 34.9673 123.899 35.3462C124.367 35.7251 124.59 36.2109 124.573 36.806L124.564 36.8362H123.067C123.067 36.5619 122.977 36.3434 122.795 36.183C122.614 36.0203 122.37 35.939 122.061 35.939C121.752 35.939 121.507 36.0064 121.328 36.1412C121.149 36.276 121.059 36.4411 121.059 36.6386C121.059 36.8339 121.143 36.992 121.312 37.1105C121.482 37.2291 121.819 37.3801 122.326 37.5615C123.116 37.7939 123.695 38.0775 124.06 38.4076C124.425 38.74 124.608 39.1909 124.608 39.7627C124.608 40.3346 124.383 40.7855 123.932 41.1179C123.481 41.4503 122.874 41.6154 122.114 41.6154C121.6 41.6154 121.136 41.534 120.719 41.369C120.303 41.2039 119.969 40.9529 119.718 40.6135C119.467 40.2741 119.346 39.872 119.355 39.4094L119.36 39.3838H120.866C120.866 39.7604 120.966 40.0301 121.168 40.1974C121.37 40.3671 121.686 40.4508 122.116 40.4508Z" fill="#090B0E"/>
<path d="M129.597 37.4777V38.6655H126.991V40.3252H130.06V41.513H125.443V34.8696H130.069V36.0574H126.991V37.4823H129.597V37.4777Z" fill="#090B0E"/>
<path d="M132.312 41.5015H130.766V34.8582H133.323C134.097 34.8582 134.708 35.0348 135.157 35.3905C135.606 35.7461 135.829 36.2319 135.829 36.8502C135.829 37.529 135.471 38.0264 134.753 38.3425C135.152 38.4564 135.443 38.6471 135.624 38.9097C135.808 39.1724 135.899 39.5141 135.899 39.9302V40.3463C135.899 40.5555 135.926 40.7647 135.985 40.9762C136.043 41.1854 136.129 41.3342 136.247 41.4225V41.5131H134.655C134.46 41.3574 134.36 40.9692 134.36 40.3463V39.9395C134.36 39.621 134.276 39.3793 134.109 39.2142C133.941 39.0492 133.695 38.9655 133.372 38.9655L132.312 38.9562V41.5015ZM132.312 36.0529V37.7777H133.325C133.637 37.7777 133.874 37.708 134.039 37.5662C134.204 37.4267 134.285 37.2198 134.285 36.9479C134.285 36.6759 134.202 36.4574 134.032 36.297C133.862 36.1343 133.625 36.0529 133.323 36.0529H132.312Z" fill="#090B0E"/>
<path d="M137.939 34.8672L139.239 39.7068L139.285 39.9508H139.316L139.362 39.7277L140.68 34.8695H142.293L140.143 41.5129H138.474L136.329 34.8695H137.939V34.8672Z" fill="#090B0E"/>
<path d="M144.457 34.8672V41.5105H142.916V34.8672H144.457Z" fill="#090B0E"/>
<path d="M150.09 41.0063C149.658 41.4131 149.032 41.6177 148.212 41.6177C147.391 41.6177 146.724 41.3666 146.21 40.8622C145.699 40.3578 145.441 39.7023 145.441 38.8934V37.5033C145.441 36.6944 145.687 36.0389 146.182 35.5345C146.675 35.0301 147.328 34.7791 148.142 34.7791C148.956 34.7791 149.585 34.9859 150.034 35.402C150.483 35.8181 150.734 36.4225 150.792 37.2128L150.783 37.243H149.281C149.26 36.7967 149.162 36.4713 148.986 36.269C148.809 36.0668 148.521 35.9645 148.119 35.9645C147.77 35.9645 147.496 36.104 147.291 36.3806C147.089 36.6572 146.987 37.0292 146.987 37.4917V38.8911C146.987 39.3583 147.098 39.7302 147.319 40.0091C147.54 40.2881 147.837 40.4275 148.212 40.4275C148.586 40.4275 148.851 40.3322 149.009 40.1393C149.167 39.9464 149.255 39.6279 149.276 39.1863H150.773L150.783 39.2165C150.75 40.0022 150.52 40.5996 150.09 41.0063Z" fill="#090B0E"/>
<path d="M155.761 37.4777V38.6655H153.156V40.3252H156.224V41.513H151.607V34.8696H156.233V36.0574H153.156V37.4823H155.761V37.4777Z" fill="#090B0E"/>
<path d="M159.504 40.4508V40.4554C159.817 40.4554 160.055 40.395 160.213 40.2695C160.371 40.1463 160.45 39.9719 160.45 39.7488C160.45 39.5256 160.375 39.3513 160.229 39.2235C160.082 39.0956 159.801 38.9561 159.385 38.8051C158.486 38.5238 157.849 38.2309 157.472 37.9241C157.096 37.6172 156.91 37.1895 156.91 36.6363C156.91 36.0831 157.149 35.6345 157.626 35.2928C158.102 34.9487 158.716 34.7791 159.464 34.7791C160.213 34.7791 160.822 34.9673 161.287 35.3462C161.754 35.7251 161.977 36.2109 161.961 36.806L161.951 36.8362H160.454C160.454 36.5619 160.364 36.3434 160.182 36.183C160.001 36.0203 159.757 35.939 159.448 35.939C159.139 35.939 158.895 36.0064 158.716 36.1412C158.537 36.276 158.446 36.4411 158.446 36.6386C158.446 36.8339 158.53 36.992 158.699 37.1105C158.869 37.2291 159.206 37.3801 159.713 37.5615C160.503 37.7939 161.082 38.0775 161.447 38.4076C161.812 38.74 161.996 39.1909 161.996 39.7627C161.996 40.3346 161.77 40.7855 161.319 41.1179C160.868 41.4503 160.261 41.6154 159.501 41.6154C158.988 41.6154 158.523 41.534 158.107 41.369C157.691 41.2039 157.356 40.9529 157.105 40.6135C156.854 40.2741 156.733 39.872 156.742 39.4094L156.747 39.3838H158.253C158.253 39.7604 158.353 40.0301 158.555 40.1974C158.76 40.3671 159.076 40.4508 159.504 40.4508Z" fill="#090B0E"/>
<path d="M28.4141 38.0076C23.1096 39.4185 17.2124 37.8774 13.3305 33.5167C9.72292 29.4465 8.78848 23.9747 10.3924 19.1956H5.32733L4.90659 20.5949L0.101894 21.6618C0.0158882 22.6172 -0.0213038 23.5935 0.00891444 24.5837C0.0414572 25.4879 0.12514 26.3759 0.248337 27.2499L5.1065 28.0565L6.73829 32.5915L3.48169 36.241C4.46494 37.8518 5.62951 39.3511 6.94981 40.6877L11.3617 38.5213L15.39 41.2386L14.9344 46.0828C16.6615 46.8034 18.4839 47.3473 20.3783 47.6658L22.6517 43.3469L27.5331 43.2144L30.0505 47.3985C31.9264 46.9684 33.7162 46.3315 35.3991 45.511L35.3433 45.1437L28.4141 38.0076Z" fill="#090B0E"/>
<path d="M48.981 25.9017C49.0577 24.9626 49.0903 24.0142 49.0577 23.0565C49.0298 22.1267 48.9415 21.2062 48.8044 20.3067L43.9485 19.514L42.3028 14.9836L45.5385 11.3272C44.5575 9.71633 43.3883 8.23563 42.068 6.90138L37.6655 9.08174L33.6278 6.37605L34.0648 1.53415C32.3912 0.836811 30.62 0.313805 28.7813 0L26.494 4.30958L21.6126 4.42349L19.1045 0.234771C17.2286 0.655502 15.4341 1.28311 13.7512 2.09901L14.4695 6.90836L10.5899 9.83487L10.562 9.82325C10.562 9.83023 10.562 9.83952 10.562 9.8465H19.9297C25.1295 8.1752 31.0314 9.42809 35.0783 13.4378C35.7338 14.0003 36.3544 14.6512 36.9077 15.4043C37.6329 16.3899 38.3651 17.7335 38.7696 19.4559C40.1875 23.9514 39.3437 28.9421 36.3614 32.7635L43.0699 39.6719C44.3088 38.2633 45.3874 36.7198 46.2683 35.0601L42.8072 31.606L44.1763 26.9779L48.981 25.9017Z" fill="#090B0E"/>
<path d="M2.44971 14.5188H25.734C25.734 14.5188 33.9534 13.9284 34.2207 22.2942C34.2207 22.2942 34.2997 29.4257 26.6429 29.4675L40.6665 43.9095" stroke="#C2171A" stroke-width="4.22821" stroke-miterlimit="10"/>
<path d="M25.6921 22.2942H17.833V33.0937" stroke="#C2171A" stroke-width="4.22821" stroke-miterlimit="10"/>
</g>
<defs>
<clipPath id="clip0_34_543">
<rect width="162" height="47.6658" fill="white"/>
</clipPath>
</defs>
</svg>
